<svg viewBox="0 0 24 24" xmlns="http://www.w3.org/2000/svg"><path style="fill:#fff;" d="m23.553 3.102h-8.04v1.488h2.37v2.354h-2.37v.75h2.37v2.357h-2.37v.771h2.37v2.229h-2.37v.893h2.37v2.234h-2.37v.893h2.37v2.247h-2.37v1.639h8.04c.127-.038.233-.188.318-.448.085-.262.129-.475.129-.636v-16.499c0-.128-.044-.205-.129-.232-.085-.026-.191-.04-.318-.04zm-1.043 16.214h-3.857v-2.245h3.857v2.247zm0-3.138h-3.857v-2.235h3.857zm0-3.128h-3.857v-2.219h3.857v2.221zm0-3h-3.857v-2.354h3.857v2.355zm0-3.119h-3.857v-2.34h3.857v2.355zm-22.51-4.2v18.601l14.16 2.449v-23.562l-14.16 2.52zm8.393 14.071c-.054-.146-.308-.766-.758-1.863-.449-1.096-.72-1.734-.799-1.916h-.025l-1.519 3.615-2.03-.137 2.408-4.5-2.205-4.5 2.07-.109 1.368 3.521h.027l1.545-3.681 2.139-.135-2.547 4.87 2.625 4.968-2.299-.135z"/></svg>
