<svg height="66.957" viewBox="12.78 0 107.16171 62.771986" width="114.306" xmlns="http://www.w3.org/2000/svg"><g transform="matrix(.86808 0 0 .88718 44.78 208.09)"><g fill="#fff" stroke="#9d9d9c" stroke-miterlimit="1.2" stroke-opacity=".941"><ellipse cx="27.255" cy="-221.647" rx="2.555" ry="2.5" stroke-width=".223"/><ellipse cx="21.401" cy="-209.741" rx="1.483" ry="1.451" stroke-width=".129"/><ellipse cx="25.625" cy="-198.731" rx="2.215" ry="2.167" stroke-width=".193"/><ellipse cx="31.582" cy="-190.413" rx="1.533" ry="1.5" stroke-width=".134"/><ellipse cx="20.432" cy="-185.88" rx="1.386" ry="1.357" stroke-width=".121"/></g><path d="m-1.405-182.908c-1.74 2.706-3.645 5.413-4.45 8.557-.213.69-.297 1.41-.39 2.12-.04.91-.07 1.83.183 2.71.08.7.458 1.31.754 1.94.257.54.745.93 1.116 1.4.406.51 1.023.78 1.548 1.16.81.6 1.827.82 2.755 1.2h-36.97v-70.76h50.3c.88.84 1.49 1.92 1.88 3.05.33.8.47 1.65.64 2.49.1.89.19 1.78.21 2.68.08 1.14.01 2.28.06 3.43-.01 1.63.03 3.26.03 4.9.09 1.29 0 2.58.07 3.87-.01 1.54.04 3.083.03 4.63-.01.4.15.85-.05 1.23-5.87 8.26-11.76 16.5-17.39 24.91" fill="#043288"/><path d="m36.05-234.553h50.535v70.754h-37.21c.916-.37 1.92-.59 2.723-1.18.337-.22.685-.44 1.022-.67.335-.22.575-.55.845-.84.302-.35.658-.67.842-1.1.237-.54.578-1.04.682-1.63.06-.34.14-.68.21-1.02.23-2.24-.31-4.49-1.23-6.54-.98-2.16-2.3-4.15-3.62-6.12a7.47 7.47 0 0 1 -.29-.44c-1.53-2.35-3.14-4.66-4.73-6.98-4.16-6-8.39-11.95-12.63-17.9-.14-.17-.1-.4-.1-.61.05-.95.01-1.91.03-2.86.05-1.04-.03-2.09.05-3.14-.01-2.71.06-5.42.05-8.13.1-1.63-.03-3.26.16-4.89.03-.97.27-1.92.49-2.87.42-1.39 1.06-2.78 2.14-3.8z" fill="#e1011c"/><path d="m49.983 135.613-.458-.002-.416.01c-3.83 0-23.13-.38-28.86-7.97-.52-.57-2.06-2.95.19-9.63 1.04-3.11 4.42-11.32 7.99-20.01 4.1-9.99 8.75-21.29 9.6-24.33v-12.071c-.1-.372-.48-1.644-1.12-2.5-.37-.497-1.14-1.53-.64-2.445.3-.536.88-.807 1.73-.807h23.3c.85 0 1.43.27 1.72.807.51.915-.26 1.948-.63 2.444-.64.85-1.01 2.12-1.11 2.5v12.04c.861 3.041 5.511 14.351 9.621 24.351 3.57 8.686 6.944 16.89 7.99 20 2.25 6.68.717 9.06.194 9.633-5.725 7.587-25.242 7.972-29.105 7.972zm27.287-9.24c-110.735 71.284-55.367 35.642 0 0z" fill="#fff"/><path d="m-1.278-182.892h52.024" fill="none" stroke="#9d9d9c" stroke-linecap="round" stroke-opacity=".941" stroke-width=".226"/></g></svg>