<svg width="24" height="24" viewBox="0 0 24 24" fill="none" xmlns="http://www.w3.org/2000/svg">
<path fill-rule="evenodd" clip-rule="evenodd" d="M21 3C21.5523 3 22 3.44772 22 4V18C22 18.5523 21.5523 19 21 19H6.455L2 22.5V4C2 3.44772 2.44772 3 3 3H21ZM13 14H11V16H13V14ZM8.567 8.813L10.529 9.206C10.6839 8.43117 11.4133 7.90935 12.1966 8.01295C12.9799 8.11655 13.5486 8.81006 13.4967 9.59851C13.4448 10.387 12.7902 11 12 11H11V13H12C13.8434 12.9994 15.3704 11.5691 15.4914 9.72961C15.6123 7.89013 14.2857 6.27218 12.4582 6.03027C10.6307 5.78835 8.92884 7.00542 8.567 8.813Z" fill="#474747"/>
</svg>
