<svg width="24" height="24" viewBox="0 0 24 24" fill="none" xmlns="http://www.w3.org/2000/svg">
<path fill-rule="evenodd" clip-rule="evenodd" d="M4.00008 6.41396L0.75708 3.17196L2.17208 1.75696L5.41408 4.99996H20.6561C20.9721 4.99994 21.2696 5.14933 21.4583 5.40285C21.647 5.65638 21.7048 5.9842 21.6141 6.28696L19.2141 14.287C19.0873 14.7101 18.6978 15 18.2561 15H6.00008V17H17.0001V19H5.00008C4.4478 19 4.00008 18.5522 4.00008 18V6.41396ZM5.50008 23C4.67165 23 4.00008 22.3284 4.00008 21.5C4.00008 20.6715 4.67165 20 5.50008 20C6.32851 20 7.00008 20.6715 7.00008 21.5C7.00008 22.3284 6.32851 23 5.50008 23ZM17.5001 23C16.6717 23 16.0001 22.3284 16.0001 21.5C16.0001 20.6715 16.6717 20 17.5001 20C18.3285 20 19.0001 20.6715 19.0001 21.5C19.0001 22.3284 18.3285 23 17.5001 23Z" fill="#474747"/>
</svg>
